# xmcd
#
# Track frame offsets: 
#        150
#        15749
#        30458
#        47929
#        63971
#        76160
#        87779
#        101420
#        117757
#        130598
#        142255
#        156014
#        164868
#        180482
#        192603
#        209900
#
# Disc length: 2939 seconds
#
# Revision: 0
# Processed by: cddbd v1.4PL0 Copyright (c) Steve Scherf et al.
# Submitted via: ExactAudioCopy v0.90a11
#
DISCID=de0b7910
DTITLE=Disk2 von 2 - Country Collection
DYEAR=1900
DGENRE=
TTITLE0=Emmylou Harris - (You never can tell) C'est la vie
TTITLE1=The Bellamy Brothers - Let your love flown
TTITLE2=Dolly Parton - Silver and Gold
TTITLE3=Willie Nelson - Always on my mind
TTITLE4=Tammy Wynette - Stand by your man
TTITLE5=Freddy Fender - Before the next teardrop falls
TTITLE6=B.J.Thomas - I just can't help believing
TTITLE7=Billie Jo Spears - Blanket on the ground
TTITLE8=Lynn Andersson - Rose garden
TTITLE9=Johnny Cash - A thing called love
TTITLE10=Jimmy Dean - Bid bad John
TTITLE11=Sommerset - Loveletters in the sand
TTITLE12=Ricky van Shelton and Dolly Parton - Rockin' years
TTITLE13=Telly Savalas - Some broken hearts never mend
TTITLE14=Dr. Hook - Sylvia's mother
TTITLE15=Kris Kristofferson - Help me make it through the night
EXTD=
EXTT0=
EXTT1=
EXTT2=
EXTT3=
EXTT4=
EXTT5=
EXTT6=
EXTT7=
EXTT8=
EXTT9=
EXTT10=
EXTT11=
EXTT12=
EXTT13=
EXTT14=
EXTT15=
PLAYORDER=
